<svg width="36" height="36" viewBox="0 0 36 36" fill="none" xmlns="http://www.w3.org/2000/svg">
<rect width="36" height="36" rx="18" fill="white"/>
<path fill-rule="evenodd" clip-rule="evenodd" d="M24.2043 15.5732L18.6204 19.2959C18.3684 19.4638 18.0403 19.4638 17.7883 19.2959L12.2043 15.5732V21.6719C12.2043 22.0861 12.5401 22.4219 12.9543 22.4219H23.4543C23.8686 22.4219 24.2043 22.0861 24.2043 21.6719V15.5732ZM12.2884 13.8265L18.2043 17.7705L24.1203 13.8265C23.9954 13.5861 23.744 13.4219 23.4543 13.4219H12.9543C12.6647 13.4219 12.4133 13.5861 12.2884 13.8265ZM25.7043 14.1586C25.6972 12.9221 24.6926 11.9219 23.4543 11.9219H12.9543C11.7161 11.9219 10.7115 12.9221 10.7044 14.1586M25.7043 14.1812V21.6719C25.7043 22.9145 24.697 23.9219 23.4543 23.9219H12.9543C11.7117 23.9219 10.7043 22.9145 10.7043 21.6719V14.1812M25.7043 14.1719V14.1812Z" fill="#722E8E"/>
</svg>
