<svg width="36" height="36" viewBox="0 0 36 36" fill="none" xmlns="http://www.w3.org/2000/svg">
<rect width="36" height="36" rx="18" fill="white"/>
<path fill-rule="evenodd" clip-rule="evenodd" d="M23.4933 14.9609C23.4933 13.7183 22.486 12.7109 21.2433 12.7109H15.2433C14.0007 12.7109 12.9933 13.7183 12.9933 14.9609V20.9609C12.9933 22.2036 14.0007 23.2109 15.2433 23.2109H21.2433C22.486 23.2109 23.4933 22.2036 23.4933 20.9609V14.9609ZM24.9933 20.9609C24.9933 23.032 23.3144 24.7109 21.2433 24.7109H15.2433C13.1723 24.7109 11.4933 23.032 11.4933 20.9609V14.9609C11.4933 12.8899 13.1723 11.2109 15.2433 11.2109H21.2433C23.3144 11.2109 24.9933 12.8899 24.9933 14.9609V20.9609ZM19.7433 17.9609C19.7433 17.1325 19.0718 16.4609 18.2433 16.4609C17.4149 16.4609 16.7433 17.1325 16.7433 17.9609C16.7433 18.7894 17.4149 19.4609 18.2433 19.4609C19.0718 19.4609 19.7433 18.7894 19.7433 17.9609ZM21.2433 17.9609C21.2433 19.6178 19.9002 20.9609 18.2433 20.9609C16.5865 20.9609 15.2433 19.6178 15.2433 17.9609C15.2433 16.3041 16.5865 14.9609 18.2433 14.9609C19.9002 14.9609 21.2433 16.3041 21.2433 17.9609ZM21.6183 13.8359C21.2041 13.8359 20.8683 14.1727 20.8683 14.5869C20.8685 15.001 21.2042 15.3369 21.6183 15.3369C22.0325 15.3369 22.3682 15.001 22.3683 14.5869C22.3683 14.1727 22.0326 13.8359 21.6183 13.8359Z" fill="#722E8E"/>
</svg>
