<svg width="36" height="36" viewBox="0 0 36 36" fill="none" xmlns="http://www.w3.org/2000/svg">
<rect width="36" height="36" rx="18" fill="white"/>
<path d="M25.2272 11.9296C24.4772 12.2971 23.7422 12.4464 22.9772 12.6721C22.1364 11.7234 20.8899 11.6709 19.6922 12.1194C18.4944 12.5679 17.7099 13.6644 17.7272 14.9221V15.6721C15.2934 15.7344 13.1259 14.6259 11.7272 12.6721C11.7272 12.6721 8.59067 18.2469 14.7272 20.9221C13.3232 21.8574 11.9229 22.4881 10.2272 22.4221C12.7082 23.7744 15.4119 24.2394 17.7527 23.5599C20.4377 22.7799 22.6442 20.7676 23.4909 17.7534C23.7435 16.8366 23.8689 15.8895 23.8637 14.9386C23.8622 14.7519 24.9962 12.8596 25.2272 11.9289V11.9296Z" stroke="#722E8E" stroke-width="1.5" stroke-linecap="round" stroke-linejoin="round"/>
</svg>
